<mxfile host="app.diagrams.net" modified="2022-06-01T13:36:04.521Z" agent="5.0 (Windows NT 10.0; Win64; x64) AppleWebKit/537.36 (KHTML, like Gecko) Chrome/101.0.0.0 Safari/537.36" etag="8u0ZMX4K1LpI_0-T9Txg" version="18.2.0" type="github">
  <diagram id="YZABfSMF-pABN_JWQCeo" name="Page-1">
    <mxGraphModel dx="1422" dy="1854" grid="1" gridSize="10" guides="1" tooltips="1" connect="1" arrows="1" fold="1" page="1" pageScale="1" pageWidth="850" pageHeight="1100" math="0" shadow="0">
      <root>
        <mxCell id="0" />
        <mxCell id="1" parent="0" />
        <mxCell id="WS4t7S256Q7tyXx8SD19-3" value="" style="edgeStyle=orthogonalEdgeStyle;rounded=0;orthogonalLoop=1;jettySize=auto;html=1;" edge="1" parent="1" source="WS4t7S256Q7tyXx8SD19-1" target="WS4t7S256Q7tyXx8SD19-2">
          <mxGeometry relative="1" as="geometry" />
        </mxCell>
        <mxCell id="WS4t7S256Q7tyXx8SD19-5" value="" style="edgeStyle=orthogonalEdgeStyle;rounded=0;orthogonalLoop=1;jettySize=auto;html=1;" edge="1" parent="1" source="WS4t7S256Q7tyXx8SD19-1" target="WS4t7S256Q7tyXx8SD19-4">
          <mxGeometry relative="1" as="geometry" />
        </mxCell>
        <mxCell id="WS4t7S256Q7tyXx8SD19-1" value="" style="ellipse;whiteSpace=wrap;html=1;aspect=fixed;" vertex="1" parent="1">
          <mxGeometry x="440" y="60" width="40" height="40" as="geometry" />
        </mxCell>
        <mxCell id="WS4t7S256Q7tyXx8SD19-12" value="" style="edgeStyle=orthogonalEdgeStyle;rounded=0;orthogonalLoop=1;jettySize=auto;html=1;" edge="1" parent="1" source="WS4t7S256Q7tyXx8SD19-2" target="WS4t7S256Q7tyXx8SD19-11">
          <mxGeometry relative="1" as="geometry" />
        </mxCell>
        <mxCell id="WS4t7S256Q7tyXx8SD19-14" value="" style="edgeStyle=orthogonalEdgeStyle;rounded=0;orthogonalLoop=1;jettySize=auto;html=1;" edge="1" parent="1" source="WS4t7S256Q7tyXx8SD19-2" target="WS4t7S256Q7tyXx8SD19-13">
          <mxGeometry relative="1" as="geometry" />
        </mxCell>
        <mxCell id="WS4t7S256Q7tyXx8SD19-2" value="" style="ellipse;whiteSpace=wrap;html=1;aspect=fixed;" vertex="1" parent="1">
          <mxGeometry x="320" y="170" width="40" height="40" as="geometry" />
        </mxCell>
        <mxCell id="WS4t7S256Q7tyXx8SD19-16" value="" style="edgeStyle=orthogonalEdgeStyle;rounded=0;orthogonalLoop=1;jettySize=auto;html=1;" edge="1" parent="1" source="WS4t7S256Q7tyXx8SD19-4" target="WS4t7S256Q7tyXx8SD19-15">
          <mxGeometry relative="1" as="geometry" />
        </mxCell>
        <mxCell id="WS4t7S256Q7tyXx8SD19-18" value="" style="edgeStyle=orthogonalEdgeStyle;rounded=0;orthogonalLoop=1;jettySize=auto;html=1;" edge="1" parent="1" source="WS4t7S256Q7tyXx8SD19-4" target="WS4t7S256Q7tyXx8SD19-17">
          <mxGeometry relative="1" as="geometry" />
        </mxCell>
        <mxCell id="WS4t7S256Q7tyXx8SD19-4" value="" style="ellipse;whiteSpace=wrap;html=1;aspect=fixed;" vertex="1" parent="1">
          <mxGeometry x="540" y="170" width="40" height="40" as="geometry" />
        </mxCell>
        <mxCell id="WS4t7S256Q7tyXx8SD19-6" value="" style="endArrow=none;dashed=1;html=1;dashPattern=1 3;strokeWidth=2;rounded=0;" edge="1" parent="1">
          <mxGeometry width="50" height="50" relative="1" as="geometry">
            <mxPoint x="160" y="220" as="sourcePoint" />
            <mxPoint x="720" y="220" as="targetPoint" />
          </mxGeometry>
        </mxCell>
        <mxCell id="WS4t7S256Q7tyXx8SD19-7" value="входной параметр" style="text;html=1;strokeColor=none;fillColor=none;align=center;verticalAlign=middle;whiteSpace=wrap;rounded=0;" vertex="1" parent="1">
          <mxGeometry x="380" y="-30" width="60" height="30" as="geometry" />
        </mxCell>
        <mxCell id="WS4t7S256Q7tyXx8SD19-8" value="" style="endArrow=classic;html=1;rounded=0;exitX=0.5;exitY=1;exitDx=0;exitDy=0;" edge="1" parent="1" source="WS4t7S256Q7tyXx8SD19-7">
          <mxGeometry width="50" height="50" relative="1" as="geometry">
            <mxPoint x="470" y="30" as="sourcePoint" />
            <mxPoint x="430" y="40" as="targetPoint" />
          </mxGeometry>
        </mxCell>
        <mxCell id="WS4t7S256Q7tyXx8SD19-9" value="1 lvl&amp;nbsp;" style="text;html=1;strokeColor=none;fillColor=none;align=center;verticalAlign=middle;whiteSpace=wrap;rounded=0;" vertex="1" parent="1">
          <mxGeometry x="150" y="190" width="60" height="30" as="geometry" />
        </mxCell>
        <mxCell id="WS4t7S256Q7tyXx8SD19-11" value="" style="ellipse;whiteSpace=wrap;html=1;aspect=fixed;" vertex="1" parent="1">
          <mxGeometry x="260" y="280" width="40" height="40" as="geometry" />
        </mxCell>
        <mxCell id="WS4t7S256Q7tyXx8SD19-13" value="" style="ellipse;whiteSpace=wrap;html=1;aspect=fixed;" vertex="1" parent="1">
          <mxGeometry x="385" y="280" width="40" height="40" as="geometry" />
        </mxCell>
        <mxCell id="WS4t7S256Q7tyXx8SD19-15" value="" style="ellipse;whiteSpace=wrap;html=1;aspect=fixed;" vertex="1" parent="1">
          <mxGeometry x="480" y="280" width="40" height="40" as="geometry" />
        </mxCell>
        <mxCell id="WS4t7S256Q7tyXx8SD19-17" value="" style="ellipse;whiteSpace=wrap;html=1;aspect=fixed;" vertex="1" parent="1">
          <mxGeometry x="590" y="280" width="40" height="40" as="geometry" />
        </mxCell>
        <mxCell id="WS4t7S256Q7tyXx8SD19-19" value="" style="endArrow=none;dashed=1;html=1;dashPattern=1 3;strokeWidth=2;rounded=0;" edge="1" parent="1">
          <mxGeometry width="50" height="50" relative="1" as="geometry">
            <mxPoint x="160" y="330" as="sourcePoint" />
            <mxPoint x="720" y="330" as="targetPoint" />
          </mxGeometry>
        </mxCell>
        <mxCell id="WS4t7S256Q7tyXx8SD19-20" value="2 lvl&amp;nbsp;" style="text;html=1;strokeColor=none;fillColor=none;align=center;verticalAlign=middle;whiteSpace=wrap;rounded=0;" vertex="1" parent="1">
          <mxGeometry x="150" y="300" width="60" height="30" as="geometry" />
        </mxCell>
      </root>
    </mxGraphModel>
  </diagram>
</mxfile>
